<?xml version="1.0" encoding="UTF-8"?>
<!-- CITT Building — Upper Floor Map (Static Export)
     Mbeya University of Science and Technology -->
<svg viewBox="0 0 860 560" xmlns="http://www.w3.org/2000/svg"
     width="860" height="560" style="background:#070d19">

  <defs>
    <pattern id="grid" width="20" height="20" patternUnits="userSpaceOnUse">
      <path d="M 20 0 L 0 0 0 20" fill="none" stroke="rgba(0,140,200,0.08)" stroke-width="0.5"/>
    </pattern>
    <style>
      text { font-family: 'IBM Plex Sans', Arial, sans-serif; }
      .mono { font-family: 'IBM Plex Mono', monospace; }
      .room-label { font-size: 11px; fill: #c8dde8; }
      .room-id    { font-size: 7px;  fill: #4a90bf; font-family: monospace; }
    </style>
  </defs>

  <!-- Background -->
  <rect width="860" height="560" fill="#070d19"/>
  <rect width="860" height="560" fill="url(#grid)"/>

  <!-- Building outer walls -->
  <rect x="18" y="18" width="824" height="524" fill="rgba(10,20,40,0.95)"
        stroke="rgba(0,160,220,0.5)" stroke-width="1.5" rx="2"/>

  <!-- Horizontal Corridor -->
  <rect x="18" y="270" width="824" height="60"
        fill="rgba(0,30,60,0.8)" stroke="rgba(0,140,200,0.1)" stroke-width="0.5"/>
  <line x1="20" y1="300" x2="840" y2="300"
        stroke="rgba(0,180,230,0.08)" stroke-width="1" stroke-dasharray="6 8"/>

  <!-- ── UPPER FLOOR ROOMS ────────────────────────────── -->

  <!-- U01 Innovation Lab (Large) -->
  <rect x="21" y="21" width="458" height="248"
        fill="rgba(125,60,152,0.18)" stroke="#a04dcc" stroke-width="1" rx="1"/>
  <text class="room-id" x="36" y="31">U01</text>
  <!-- Electronics workstations hint -->
  <rect x="50"  y="60" width="60" height="40" fill="none" stroke="rgba(160,77,204,0.2)" stroke-width="0.5" rx="1"/>
  <rect x="130" y="60" width="60" height="40" fill="none" stroke="rgba(160,77,204,0.2)" stroke-width="0.5" rx="1"/>
  <rect x="210" y="60" width="60" height="40" fill="none" stroke="rgba(160,77,204,0.2)" stroke-width="0.5" rx="1"/>
  <rect x="290" y="60" width="60" height="40" fill="none" stroke="rgba(160,77,204,0.2)" stroke-width="0.5" rx="1"/>
  <rect x="370" y="60" width="60" height="40" fill="none" stroke="rgba(160,77,204,0.2)" stroke-width="0.5" rx="1"/>
  <rect x="50"  y="130" width="60" height="40" fill="none" stroke="rgba(160,77,204,0.2)" stroke-width="0.5" rx="1"/>
  <rect x="130" y="130" width="60" height="40" fill="none" stroke="rgba(160,77,204,0.2)" stroke-width="0.5" rx="1"/>
  <rect x="210" y="130" width="60" height="40" fill="none" stroke="rgba(160,77,204,0.2)" stroke-width="0.5" rx="1"/>
  <rect x="290" y="130" width="60" height="40" fill="none" stroke="rgba(160,77,204,0.2)" stroke-width="0.5" rx="1"/>
  <rect x="370" y="130" width="60" height="40" fill="none" stroke="rgba(160,77,204,0.2)" stroke-width="0.5" rx="1"/>
  <text class="room-label" x="250" y="210" text-anchor="middle">Innovation Lab</text>
  <text style="font-size:9px;fill:rgba(160,77,204,0.6)" x="250" y="228" text-anchor="middle">OPEN WORKSPACE · PROTOTYPING EQUIPMENT</text>

  <!-- U02 Incubation Hub A -->
  <rect x="481" y="21" width="168" height="248"
        fill="rgba(26,143,111,0.18)" stroke="#22b08a" stroke-width="1" rx="1"/>
  <text class="room-id" x="496" y="31">U02</text>
  <text class="room-label" x="565" y="135" text-anchor="middle">Incubation</text>
  <text class="room-label" x="565" y="150" text-anchor="middle">Hub A</text>
  <!-- Desk pods -->
  <rect x="503" y="65"  width="50" height="30" fill="none" stroke="rgba(34,176,138,0.2)" stroke-width="0.5" rx="1"/>
  <rect x="563" y="65"  width="50" height="30" fill="none" stroke="rgba(34,176,138,0.2)" stroke-width="0.5" rx="1"/>
  <rect x="503" y="110" width="50" height="30" fill="none" stroke="rgba(34,176,138,0.2)" stroke-width="0.5" rx="1"/>
  <rect x="563" y="110" width="50" height="30" fill="none" stroke="rgba(34,176,138,0.2)" stroke-width="0.5" rx="1"/>

  <!-- U03 Staircase -->
  <rect x="651" y="21" width="188" height="248"
        fill="rgba(46,64,83,0.2)" stroke="#4a6278" stroke-width="1" rx="1"/>
  <text class="room-id" x="666" y="31">U03</text>
  <line x1="651" y1="50"  x2="700" y2="21"  stroke="rgba(74,98,120,0.18)" stroke-width="1"/>
  <line x1="651" y1="85"  x2="735" y2="21"  stroke="rgba(74,98,120,0.18)" stroke-width="1"/>
  <line x1="651" y1="120" x2="770" y2="21"  stroke="rgba(74,98,120,0.18)" stroke-width="1"/>
  <line x1="651" y1="155" x2="805" y2="21"  stroke="rgba(74,98,120,0.18)" stroke-width="1"/>
  <line x1="651" y1="190" x2="839" y2="39"  stroke="rgba(74,98,120,0.18)" stroke-width="1"/>
  <line x1="651" y1="225" x2="839" y2="82"  stroke="rgba(74,98,120,0.18)" stroke-width="1"/>
  <line x1="660" y1="269" x2="839" y2="120" stroke="rgba(74,98,120,0.18)" stroke-width="1"/>
  <line x1="700" y1="269" x2="839" y2="160" stroke="rgba(74,98,120,0.18)" stroke-width="1"/>
  <line x1="740" y1="269" x2="839" y2="200" stroke="rgba(74,98,120,0.18)" stroke-width="1"/>
  <line x1="780" y1="269" x2="839" y2="240" stroke="rgba(74,98,120,0.18)" stroke-width="1"/>
  <text class="room-label" x="745" y="145" text-anchor="middle">Staircase</text>
  <text style="font-size:16px;fill:rgba(74,98,120,0.5)" x="745" y="170" text-anchor="middle">↕</text>

  <!-- U04 Prototype Workshop -->
  <rect x="21" y="331" width="248" height="208"
        fill="rgba(125,60,152,0.14)" stroke="#a04dcc" stroke-width="1" rx="1"/>
  <text class="room-id" x="36" y="341">U04</text>
  <text class="room-label" x="145" y="425" text-anchor="middle">Prototype</text>
  <text class="room-label" x="145" y="440" text-anchor="middle">Workshop</text>
  <!-- Workbench hints -->
  <rect x="40"  y="360" width="210" height="20" fill="none" stroke="rgba(160,77,204,0.2)" stroke-width="0.5" rx="1"/>
  <rect x="40"  y="480" width="210" height="20" fill="none" stroke="rgba(160,77,204,0.2)" stroke-width="0.5" rx="1"/>

  <!-- U05 Collaboration Studio -->
  <rect x="271" y="331" width="228" height="208"
        fill="rgba(26,102,149,0.18)" stroke="#2980b9" stroke-width="1" rx="1"/>
  <text class="room-id" x="286" y="341">U05</text>
  <text class="room-label" x="385" y="425" text-anchor="middle">Collaboration</text>
  <text class="room-label" x="385" y="440" text-anchor="middle">Studio</text>
  <!-- Whiteboards -->
  <rect x="290" y="360" width="190" height="12" fill="none" stroke="rgba(41,128,185,0.3)" stroke-width="0.5" rx="1"/>

  <!-- U06 Incubation Hub B -->
  <rect x="501" y="331" width="148" height="208"
        fill="rgba(26,143,111,0.18)" stroke="#22b08a" stroke-width="1" rx="1"/>
  <text class="room-id" x="516" y="341">U06</text>
  <text class="room-label" x="575" y="425" text-anchor="middle">Incubation</text>
  <text class="room-label" x="575" y="440" text-anchor="middle">Hub B</text>

  <!-- U07 Server & IT -->
  <rect x="651" y="331" width="188" height="208"
        fill="rgba(28,40,51,0.35)" stroke="#2e4053" stroke-width="1" rx="1"/>
  <text class="room-id" x="666" y="341">U07</text>
  <!-- Server racks -->
  <rect x="668" y="370" width="153" height="12" fill="none" stroke="rgba(46,64,83,0.3)" stroke-width="0.5" rx="1"/>
  <rect x="668" y="390" width="153" height="12" fill="none" stroke="rgba(46,64,83,0.3)" stroke-width="0.5" rx="1"/>
  <rect x="668" y="410" width="153" height="12" fill="none" stroke="rgba(46,64,83,0.3)" stroke-width="0.5" rx="1"/>
  <rect x="668" y="430" width="153" height="12" fill="none" stroke="rgba(46,64,83,0.3)" stroke-width="0.5" rx="1"/>
  <rect x="668" y="450" width="153" height="12" fill="none" stroke="rgba(46,64,83,0.3)" stroke-width="0.5" rx="1"/>
  <text class="room-label" x="745" y="487" text-anchor="middle">Server &amp; IT</text>

  <!-- Nav nodes (informational) -->
  <circle cx="135" cy="300" r="3" fill="rgba(0,201,167,0.3)"/>
  <circle cx="385" cy="300" r="3" fill="rgba(0,201,167,0.3)"/>
  <circle cx="565" cy="300" r="3" fill="rgba(0,201,167,0.3)"/>
  <circle cx="745" cy="300" r="3" fill="rgba(0,201,167,0.3)"/>
  <circle cx="745" cy="145" r="3" fill="rgba(0,201,167,0.3)"/>

  <!-- Staircase connection hint -->
  <line x1="745" y1="145" x2="745" y2="300" stroke="rgba(0,201,167,0.15)" stroke-width="1" stroke-dasharray="4 4"/>

  <!-- Compass -->
  <circle cx="825" cy="40" r="14" fill="none" stroke="rgba(0,160,220,0.12)" stroke-width="0.8"/>
  <path d="M825,27 L821,52 L825,44 L829,52 Z" fill="rgba(0,180,150,0.5)"/>
  <text style="font-size:7px;fill:rgba(0,180,150,0.5)" x="825" y="22" text-anchor="middle">N</text>

  <!-- Footer label -->
  <text class="mono" style="font-size:9px;fill:rgba(0,160,220,0.25);letter-spacing:2"
        x="836" y="548" text-anchor="end">MUST · CITT · UPPER FLOOR</text>
</svg>
